<svg id="Layer_1" data-name="Layer 1" xmlns="http://www.w3.org/2000/svg" viewBox="0 0 8015.44 8163.53"><path d="M2008.34,8232.28c-10.73-21.46,3.58-46.5,35.77-57.23,68-28.61,107.29,0,71.53,53.65C2087,8278.77,2037,8278.77,2008.34,8232.28Z" transform="translate(-223.29 -238.9)" style="fill:#ba994f"/><path d="M1858.33,8374.15c-59.52-54.81-17.51-195.25,91-301.43,119-116.47,476.15-250.06,549.68-205.53,84,51.38,24.51,116.47-150.55,167.85-168.06,47.95-304.6,140.44-304.6,202.09,0,13.7,56,24,122.54,24,98,0,122.54,13.7,122.54,68.51,0,61.65-24.51,68.51-203.07,68.51C1973.87,8398.13,1868.83,8387.85,1858.33,8374.15Z" transform="translate(-223.29 -238.9)" style="fill:#eab30d"/><path d="M5513.53,8326.19c-38.51-65.08-38.51-71.93,14-51.38,105,37.68,129.54-17.12,49-102.76C5531,8124.1,5412,8062.44,5310.47,8035c-140.05-41.11-185.56-68.51-185.56-119.89,0-75.36,45.51-78.78,273.08-24,224.08,54.81,518.18,335.69,462.16,438.45-52.52,99.33-280.09,95.91-346.62-3.43Z" transform="translate(-223.29 -238.9)" style="fill:#eab30d"/><path d="M2814.14,7918.57c0-54.8,24.51-68.5,122.54-68.5,133.05,0,129.55,3.42,175.06-428.17,31.51-304.86,49-359.67,129.54-359.67,66.53,0,70,13.7,49,198.67-14,106.19-35,284.31-45.52,393.92l-21,195.25h234.57c206.57,0,231.08,6.85,231.08,68.5,0,65.09-24.51,68.51-437.64,68.51s-437.65-3.42-437.65-68.51Z" transform="translate(-223.29 -238.9)" style="fill:#eab30d"/><path d="M4249.62,7901.45c0-27.41,17.5-51.38,38.51-51.38,24.51,0,31.51-54.81,14-174.7-24.5-167.84-21-174.69,56-161,59.52,6.85,87.53,34.25,94.53,95.91,21,178.12,45.52,239.78,94.53,239.78,80.53,0,63,58.23-24.5,82.2-147.05,37.68-273.09,24-273.09-30.82Z" transform="translate(-223.29 -238.9)" style="fill:#eab30d"/><path d="M7271.11,7281.46c-24.51-10.28-45.51-54.81-45.51-95.91,0-71.94,10.5-75.36,203.07-61.66,168.05,10.27,213.57,0,280.09-61.66,108.53-99.33,101.53-253.47-14-332.26-49-34.25-119-89.06-157.55-119.89-35-34.25-77-61.65-87.53-61.65s-164.55-89.06-339.61-198.67c-178.56-113-472.66-291.16-654.72-404.2-182.06-109.61-409.63-253.48-507.66-315.13-94.54-61.66-322.11-185-504.17-274-318.61-157.57-336.11-161-700.23-171.27-245.08-10.28-479.66,6.85-686.23,44.53-171.55,30.83-416.64,68.51-542.68,89.06-297.6,41.1-556.68,82.21-868.28,133.59C2415,5493.41,2387,5490,2324,5435.18c-59.52-51.38-84-54.8-161.05-20.55-87.53,37.68-91,51.38-77,226.07,17.51,208.95,122.54,387.07,290.6,483,154.05,92.49,567.18,75.36,1330.44-54.8,780.75-130.17,1179.89-161,1369-102.77,73.52,24,315.1,143.87,532.17,263.76,283.6,161,392.13,239.77,392.13,287.73,0,92.48-73.52,82.21-304.6-51.38-381.62-215.8-539.17-294.58-584.69-294.58-24.51,0-73.52,65.08-105,147.29-70,185-227.58,335.68-469.16,452.15-185.56,92.48-189.06,95.91-175.06,226.07,10.51,130.16,7,137-77,126.74-70-6.85-91-30.83-98-123.31-10.5-113-17.5-113-157.55-106.19-290.59,17.13-374.62,0-374.62-68.51,0-71.93,119-106.19,367.62-106.19,203.07,0,451.65-78.78,598.7-188.39,140-106.19,259.08-274,259.08-373.37,0-54.8-24.51-61.65-287.09-44.53-161.06,10.28-504.17,51.38-763.25,92.49-805.27,126.74-885.8,137-1127.38,137-280.09,0-392.13-37.68-546.18-181.54-161.05-150.72-213.57-260.33-241.58-503.53-10.5-113-35-205.52-49-205.52-52.52,0-35,284.3,24.51,483,66.52,212.37,290.59,459,451.64,493.25,182.06,37.68,192.57,47.95,192.57,133.59,0,78.78-7,82.21-147.05,47.95-441.15-95.91-728.24-503.53-728.24-1041.31,0-147.29-14-188.4-101.53-267.18-63-58.23-175.06-263.75-287.1-513.8-98-226.08-304.6-695.35-455.15-1037.89-301.1-678.22-332.61-822.09-203.07-983.08,38.52-48,119-113,175.06-140.44,56-30.83,101.54-65.08,101.54-78.79s-70-48-157.56-71.93c-154.05-44.53-308.1-178.12-346.61-301.43-87.53-287.73-161-613.14-161-712.48,0-277.45,178.55-428.17,504.16-428.17,154,0,210.07,17.13,301.1,89.06,171.56,143.87,420.14,664.52,420.14,887.17,0,150.72-140,369.94-273.09,424.75-157.55,68.5-122.54,119.88,101.53,143.86,220.58,24,290.6,48,437.65,154.14,108.53,78.79,185.56,205.53,672.22,1109.82,105,198.68,203.07,369.94,217.07,387.07,10.5,13.7,101.53,10.28,196.07-6.85s304.6-48,469.15-68.51c301.1-41.1,504.17-71.93,903.3-140.44,189.06-34.25,234.58-30.83,308.1,17.13,94.53,58.23,112,191.82,38.51,263.75-28,24-283.59,82.21-570.68,126.74s-672.23,106.19-854.29,137l-332.61,54.8L2751.12,4733c-14,205.52-38.51,263.75-164.55,424.75-66.53,85.63-112,157.56-101.54,157.56,28,0,700.23-106.18,1425-222.65,626.71-102.76,906.8-106.18,1260.42-20.55,336.11,85.64,448.15,143.87,1109.87,561.76,1050.34,664.52,1207.89,763.86,1375.95,859.77,322.11,181.54,388.63,455.57,168.05,678.22-94.53,92.49-136.54,109.62-308.1,119.89-112,3.43-224.07,0-245.08-10.27ZM2229.45,5198.83c248.58-102.76,413.14-411,336.11-630.27-31.51-92.48-269.59-548.06-682.73-1305.06-175-318.56-280.09-431.6-455.15-479.56-192.56-51.38-455.15-48-570.68,13.71-189.07,92.48-189.07,226.07,0,623.41,77,167.85,189.06,417.9,248.58,558.34,56,140.44,133,318.56,168.05,393.92s119,267.18,189.07,428.17c161,366.51,245.08,445.3,479.65,445.3,94.54,0,224.08-20.56,287.1-48Zm1214.9-839.22c829.77-126.73,885.79-137,924.3-178.11,28-27.41-28-30.83-220.57-13.71-143.55,10.28-269.59,27.41-280.09,34.26-14,6.85-108.54,20.55-213.57,34.25-196.07,24-710.74,106.19-885.79,140.44-52.52,10.28-84,34.26-73.53,54.81,24.51,37.68,80.53,34.25,749.25-71.93ZM1168.6,2232.46c147.05-143.87,126-339.11-73.53-726.18-56-109.61-143.54-222.65-192.56-256.9-112-71.93-301.1-68.51-416.64,3.42-105,65.09-112,198.68-38.51,496.68,28,106.19,59.52,232.93,70,280.88s52.52,130.17,94.53,178.12c63,82.21,94.54,92.49,280.1,92.49,157.55,0,224.07-17.13,276.59-68.51Z" transform="translate(-223.29 -238.9)" style="fill:#eab30d"/><path d="M7981.85,5479.71c-28-44.53-91-178.12-136.55-301.43C7428.67,4106.14,7351.64,3924.59,7005,3123.06,6774,2592.12,6665.41,2277,6665.41,2150.25c0-65.08-59.52-260.33-136.54-435-189.06-455.57-189.06-448.72-98-544.63,196.06-212.38,234.57-284.31,234.57-435,0-205.52-38.51-267.18-255.58-390.49L6227.77,238.9l133,20.55c427.15,58.23,570.69,513.8,266.09,846.06-73.52,82.21-136.54,164.42-136.54,185-3.5,95.91,269.59,647.4,336.11,674.8,101.53,44.53,1460,3439.07,1411,3528.13-49,85.64-196.06,78.79-255.58-13.7ZM7729.76,4356.19c-224.07-537.78-514.67-1246.83-651.21-1575.67-266.09-647.4-262.59-637.12-294.1-606.29-24.51,20.55,182.06,561.76,238.08,620,14,20.55,28,54.81,28,78.78s28,109.62,66.52,191.83c87.53,198.67,332.61,774.13,651.22,1548.26,297.59,715.9,339.61,805,357.11,753.58,3.51-20.55-171.55-472.7-395.63-1010.48Z" transform="translate(-223.29 -238.9)" style="fill:#eab30d"/><path d="M6756.44,5212.53c-70-95.91-171.55-284.3-227.57-421.32S6318.8,4298,6185.76,3996.53c-462.16-1034.47-507.67-1154.35-490.17-1246.84C5713.1,2670.91,5447,1941.3,5363,1835.12c-17.5-24-157.55-48-311.6-54.81-273.09-10.27-287.09-13.7-399.13-137-119-126.74-227.57-404.2-227.57-582.32,0-373.36,416.63-671.37,791.26-568.61,276.59,71.94,507.66,438.45,458.65,729.61-10.5,65.08-59.52,208.94-112,315.13l-91,198.67L5650.08,2164c98,236.35,206.57,452.15,245.08,479.56s259.09,500.1,507.67,1072.14c238.08,558.33,448.15,1044.73,465.65,1079,49,85.63,87.53,589.16,45.52,589.16-17.51,0-87.53-78.78-157.56-171.27Zm14-256.9c0-17.13-486.66-1157.78-630.21-1472.91-35-75.36-115.54-260.33-178.56-411s-122.54-246.63-129.54-215.8c-10.51,47.95,262.58,709,773.75,1870.25,59.52,133.59,119,246.63,136.55,246.63,14,0,28-6.86,28-17.13ZM5328,1636.45C5559.05,1516.56,5643.08,1061,5475,828.06,5268.45,536.9,5107.4,489,4816.8,626c-196.06,95.91-287.09,236.35-287.09,452.15,0,205.52,73.52,366.51,231.08,503.53,101.53,85.63,150.54,102.76,297.59,102.76,94.54,0,217.08-20.55,269.59-48Z" transform="translate(-223.29 -238.9)" style="fill:#eab30d"/><path d="M5338.48,1225.4c0-263.75-105-441.87-318.61-534.36-77-30.82-66.52-34.25,63-20.55,192.56,17.13,301.1,113,357.12,311.71,31.51,113,31.51,174.69,0,270.6C5377,1441.2,5338.48,1430.92,5338.48,1225.4Z" transform="translate(-223.29 -238.9)" style="fill:#eab30d"/><path d="M1938.85,8363.87c0-92.48,182.06-102.76,1915.14-99.33,1232.4,3.42,1778.58-3.43,1789.09-30.83,7-20.55-59.52-75.36-147.05-126.74-164.56-95.91-192.57-137-115.54-164.42,21-10.27,0-20.55-52.52-20.55-66.52-3.43-98,13.7-98,51.38,0,27.4-14,44.53-28,34.25-17.5-10.27-423.64-20.55-903.3-24s-850.78-13.71-826.27-20.56c66.52-24,49-78.78-28-78.78-38.51,0-70,24-70,51.38,0,30.83-31.51,51.38-77,48-59.52-3.43-66.52-6.86-17.5-20.56,87.53-24,73.52-78.78-24.51-78.78-66.52,0-77-13.7-63-85.63,10.5-61.66,0-85.64-42-85.64-35,0-56-30.83-56-85.63,0-61.66,17.51-85.64,70-85.64,77,0,101.53-119.88,28-147.29-35-10.27-42-99.33-35-322,7-298,3.5-311.71-77-366.52-59.52-37.68-164.55-54.8-332.61-54.8-164.55,0-259.08-17.13-294.1-48-31.51-30.83-63-37.68-84-17.12-63,61.65-381.63-133.59-493.67-301.44-59.52-89.06-98-174.69-87.53-191.82s49,17.13,84,75.36,84,95.91,112,89.06c24.51-10.28,73.52,3.43,112,34.25,66.52,48,63,51.38-24.51,17.13-59.52-17.13-98-20.55-98,0,0,44.53,63,75.36,185.56,85.64,63,6.85,175.05,27.4,252.08,47.95s252.08,37.68,388.63,37.68c196.06,0,269.59,13.7,339.61,68.51,154.05,119.88,367.62,171.27,738.74,178.12,192.57,3.42,325.61,13.7,294.1,20.55-52.52,10.27-49,20.55,14,82.21s84,65.08,147,27.4c63-41.1,66.53-37.68,31.51,6.85-24.5,27.4-35,61.66-21,71.93,10.5,13.7-3.5,24-35,24-35,0-59.52,17.13-59.52,34.26,0,20.55,24.5,34.25,52.51,34.25s52.52,3.42,56,10.27c0,3.43,28,185,63,400.77l59.52,393.92,455.15,20.55c451.65,20.56,591.7,44.53,553.18,102.76-10.5,17.13,3.51,20.56,31.51,10.28s63-3.43,77,17.13c10.5,20.55-3.5,37.68-31.51,37.68-31.51,0-56,13.7-56,27.4,0,58.23,45.52,71.93,112,30.83,59.52-34.26,80.52-27.41,168.05,75.36,80.53,92.48,94.54,130.16,66.53,181.54-31.51,58.23-122.54,61.66-1974.66,61.66-1225.4,0-1943.14-13.71-1943.14-34.26Zm3879.28-92.48c-56-13.7-77-51.38-70-116.47,3.5-13.7-28-30.82-66.52-41.1-56-13.7-63-10.28-28,30.83,21,24,31.51,71.93,17.51,99.33-14,41.11,7,51.38,94.53,48,63-3.43,84-10.28,52.51-20.55ZM4326.64,7733.6c7-65.08,0-109.61-14-102.76-14,10.28-28,6.85-28-10.27,0-13.7-17.51-126.74-38.52-250s-42-267.18-49-325.42c-3.5-54.8-10.51-113-14-126.73-3.5-17.13-35-27.41-73.52-27.41s-70-13.7-70-27.4c0-17.13-91-17.13-199.57,0-112,17.13-269.59,24-350.11,10.28l-143.55-20.56-21,130.17c-31.51,171.27-45.51,280.88-73.52,602.86l-24.51,263.76H4312.64l14-116.47Z" transform="translate(-223.29 -238.9)" style="fill:#eab30d"/><path d="M2394,7970c-24.5-27.4-70-51.38-101.53-54.8-175.06-10.28,168.06-58.23,441.15-61.66,266.08-3.42,318.6,6.85,304.6,44.53-10.51,27.4,7,54.81,45.51,61.66,35,10.27-84,17.12-266.09,20.55-178.56,3.43-339.61,13.7-353.61,24S2418.51,7997.36,2394,7970Z" transform="translate(-223.29 -238.9)" style="fill:#eab30d"/><path d="M7173.08,7240.35c-77-30.83-280.09-133.59-455.15-226.07-171.56-92.49-402.63-212.38-507.67-270.61C5769.12,6510.75,5629.07,6432,5545,6380.58c-49-34.25-161.05-95.91-252.08-140.44-154.05-71.93-217.07-137-133-137,21,0,35,17.13,35,37.68,0,17.12,14,24,35,13.7,17.51-10.28,63-3.43,98,13.7,42,20.55,77,24,98,3.43s80.53-3.43,154.05,44.53c66.53,44.53,486.66,267.17,931.31,496.67,682.73,352.82,836.78,417.9,966.32,417.9,105,0,178.56-20.55,227.58-65.08,42-37.68,80.52-58.23,91-48,28,24,0-188.39-28-229.5-17.51-30.83-266.09-198.67-469.16-325.41-31.51-17.12-115.53-71.93-189.06-116.46-105-61.66-122.54-89.06-91-126.74,24.51-30.83,28-47.95,3.5-47.95-21,0-42,17.12-49,37.68-17.51,48-273.09-95.91-273.09-150.72,0-27.4,14-24,31.51,6.85,17.5,27.4,38.51,30.83,52.51,10.28,10.51-20.56-14-61.66-56-89.06-108.54-75.36-143.55-68.51-98,17.12,35,61.66,35,65.09-24.51,34.26-290.59-164.42-549.68-339.11-556.68-373.37-3.5-24,0-27.4,7-10.27,10.51,20.55,38.52,27.4,59.52,17.12,24.51-6.85,91,27.41,150.55,82.21,59.52,51.38,126.05,89.06,147.05,82.21,24.51-6.85,42,10.28,42,37.68,0,34.25,31.51,44.53,122.54,34.25,101.53-10.27,171.55,20.56,402.63,167.85,157.55,99.33,266.09,185,245.08,191.82-17.51,6.85-35,34.25-35,61.65,0,41.11,14,41.11,70,6.85s84-30.82,164.56,27.41c56,41.1,133,82.21,178.56,95.91,42,13.7,77,41.1,77,58.23s21,30.83,49,30.83c24.51,0,87.53,58.23,136.54,130.16,143.55,202.1,80.53,469.28-129.54,568.61-105,48-108.54,48-133-24-10.51-41.1-21-58.23-24.51-41.1-3.5,24-56,30.83-133.05,24-105-13.7-122.54-6.85-105,41.1,28,68.51,10.5,65.08-168.06-6.85Z" transform="translate(-223.29 -238.9)" style="fill:#eab30d"/><path d="M4403.67,6774.5c-10.51-30.83-56-54.81-98-58.23-45.51,0-14-24,84-54.81,87.53-30.82,164.56-65.08,175.06-75.35s45.51-41.11,80.53-68.51c52.51-41.11,59.52-41.11,38.51,10.27-14,37.68-3.5,54.81,35,54.81,31.51,0,56,13.7,56,34.25,0,51.38-122.54,99.34-203.07,78.79-56-13.7-77-3.43-77,34.25,0,75.36-66.52,106.19-91,44.53Z" transform="translate(-223.29 -238.9)" style="fill:#eab30d"/><path d="M4778.29,6551.85c-52.52-34.25-35-161,21-150.71,21,3.42,49-13.71,59.52-44.53,10.5-27.41,3.5-41.11-14-30.83-21,10.27-24.5-3.43-14-30.83,10.5-30.83,35-44.53,52.52-34.25,21,10.27,28-17.13,21-61.66-7-41.11-7-58.23,0-34.25,10.51,20.55,42,41.1,73.53,41.1,52.52,0,52.52-6.85,7-34.25s-42-34.26,10.5-34.26c77,0,73.53,27.41-7,212.38-73.52,174.69-143.55,239.77-210.07,202.09Z" transform="translate(-223.29 -238.9)" style="fill:#eab30d"/><path d="M2411.51,6315.5c-98-20.55-150.55-71.93-98-102.76,31.51-20.55,24.51-37.68-21-65.08-59.52-34.26-63-30.83-45.52,34.25,14,68.51,7,65.08-94.53-27.4-133-119.89-224.07-294.58-206.56-383.64,7-37.68,31.51,0,63,95.91,24.5,85.63,66.52,157.57,94.53,157.57,31.51,0,35-13.71,7-44.53-21-24-28-61.66-14-82.21s56,10.27,101.53,75.35c119,174.7,238.08,215.8,609.2,215.8,175.06-3.42,322.11,6.85,322.11,20.56,0,27.4-101.54,133.58-126.05,133.58-10.5,0-42-24-70-51.38-70-65.08-423.64-71.93-441.14-6.85-7,24-42,37.68-80.53,30.83Z" transform="translate(-223.29 -238.9)" style="fill:#eab30d"/><path d="M3374.33,6243.57c0-17.13-42-44.53-94.53-65.08-91-27.41-84-30.83,91-54.81,101.53-13.7,196.06-17.13,206.56-3.42,10.51,10.27-7,17.12-35,17.12-31.51,0-63,30.83-73.52,68.51C3451.35,6274.4,3374.33,6305.22,3374.33,6243.57Z" transform="translate(-223.29 -238.9)" style="fill:#eab30d"/><path d="M1914.35,6157.93c10.5-27.4,3.5-54.8-21-65.08-24.51-6.85-28-17.12,0-34.25,17.5-10.28,52.52,17.13,73.52,61.66,35,71.93,31.51,85.63-14,85.63-35,0-49-20.55-38.51-48Z" transform="translate(-223.29 -238.9)" style="fill:#eab30d"/><path d="M1721.78,5959.26c-17.5-41.1-3.5-65.08,45.52-78.78,38.51-13.7,80.52-13.7,91-3.43,14,10.28-3.5,20.56-35,20.56-28,0-59.52,27.4-66.53,61.65-10.5,54.81-14,54.81-35,0Z" transform="translate(-223.29 -238.9)" style="fill:#eab30d"/><path d="M6490.36,5829.1c0-17.13-21-34.26-45.52-34.26s-63-30.82-87.53-68.5c-38.51-61.66-24.51-58.23,98,20.55,154.05,99.34,164.56,116.46,87.53,116.46C6514.86,5863.35,6490.36,5849.65,6490.36,5829.1Z" transform="translate(-223.29 -238.9)" style="fill:#eab30d"/><path d="M1973.87,5627c0-17.12,21-41.1,45.51-47.95,31.51-13.7,28-27.41-10.5-54.81-45.52-30.83-45.52-37.68,10.5-37.68,42,0,59.52,27.4,59.52,85.64,0,54.8-21,85.63-52.52,85.63C1998.37,5657.83,1973.87,5644.13,1973.87,5627Z" transform="translate(-223.29 -238.9)" style="fill:#eab30d"/><path d="M5758.61,5524.24c-84-54.81-136.54-106.19-115.53-119.89,17.5-10.27,45.51,3.43,56,34.26,10.5,27.4,35,41.1,56,30.82,17.51-10.27,35-3.42,35,17.13s17.5,27.4,35,17.13c21-10.28,35-3.43,35,13.7,0,20.55,17.5,34.25,38.51,30.83,21-6.85,49,10.27,56,34.25,24.51,61.66-24.51,48-196.06-58.23Z" transform="translate(-223.29 -238.9)" style="fill:#eab30d"/><path d="M2639.08,5418.05c0-17.12,24.51-34.25,52.52-34.25s52.52,17.13,52.52,34.25c0,20.56-24.51,34.26-52.52,34.26S2639.08,5438.61,2639.08,5418.05Z" transform="translate(-223.29 -238.9)" style="fill:#eab30d"/><path d="M2166.43,5353c-10.5-17.12-3.5-41.1,17.5-54.8,42-24,105,6.85,105,54.8C2289,5394.08,2194.44,5394.08,2166.43,5353Z" transform="translate(-223.29 -238.9)" style="fill:#eab30d"/><path d="M2947.19,5322.14c-10.51-37.68,0-65.08,28-65.08,24.5,0,38.51,13.7,28,30.83-10.51,13.7,0,27.4,17.5,27.4,21,0,38.51,17.13,38.51,34.26,0,61.65-98,37.68-112-27.41Z" transform="translate(-223.29 -238.9)" style="fill:#eab30d"/><path d="M5373.49,5318.72c-24.51-17.13-38.52-51.38-31.51-75.36,10.5-34.25,28-24,59.52,30.83,45.51,82.21,42,89.06-28,44.53Z" transform="translate(-223.29 -238.9)" style="fill:#eab30d"/><path d="M3409.34,5263.91c0-30.83-35-51.38-94.53-54.8-63-3.43-73.53-10.28-35-20.56,73.52-20.55,304.6,51.38,304.6,95.91,0,17.13-38.52,30.83-87.53,30.83-56,0-87.53-20.55-87.53-51.38Z" transform="translate(-223.29 -238.9)" style="fill:#eab30d"/><path d="M3805,5209.11c10.5-37.68,0-65.09-21-65.09s-24.51-10.27-14-24c28-24,199.56,54.8,199.56,95.91,0,10.27-42,30.83-91,41.1-73.52,13.7-87.53,3.43-73.52-48Z" transform="translate(-223.29 -238.9)" style="fill:#eab30d"/><path d="M4799.3,5188.55c-168.06-10.27-234.58-27.4-224.08-54.8,7-24,35-41.11,63-44.53,332.61-24,336.12-24,119-48l-210.07-24h192.57c199.56-3.43,483.16,44.53,322.1,54.8-70,3.43-73.52,13.7-42,71.94,21,37.67,31.51,65.08,28,61.65-7-3.42-119-10.27-248.58-17.12Z" transform="translate(-223.29 -238.9)" style="fill:#eab30d"/><path d="M4319.64,5126.9c0-27.41,31.51-51.38,70-51.38s70,24,70,51.38-31.51,51.38-70,51.38S4319.64,5154.3,4319.64,5126.9Z" transform="translate(-223.29 -238.9)" style="fill:#eab30d"/><path d="M2779.13,4561.71c0-17.13,24.51-34.25,52.52-34.25s52.52,17.12,52.52,34.25c0,20.55-24.51,34.26-52.52,34.26S2779.13,4582.26,2779.13,4561.71Z" transform="translate(-223.29 -238.9)" style="fill:#eab30d"/><path d="M3122.24,4537.73c21-6.85,42-37.68,42-65.08,0-54.8,126-65.08,157.55-10.27,31.51,47.95,24.51,51.38-122.54,75.35C3132.75,4548,3097.74,4548,3122.24,4537.73Z" transform="translate(-223.29 -238.9)" style="fill:#eab30d"/><path d="M4074.56,4356.19c0-17.13,31.51-34.25,70-34.25s70,17.12,70,34.25c0,20.55-31.51,34.25-70,34.25S4074.56,4376.74,4074.56,4356.19Z" transform="translate(-223.29 -238.9)" style="fill:#eab30d"/><path d="M3024.21,4287.68c0-17.12,21-34.25,45.52-34.25,28,0,24.5-13.7-10.51-34.26-45.51-27.4-42-34.25,10.51-34.25,35,0,59.52,27.4,59.52,68.51,0,37.68-24.51,68.51-52.52,68.51S3024.21,4308.23,3024.21,4287.68Z" transform="translate(-223.29 -238.9)" style="fill:#eab30d"/><path d="M3517.87,4195.2c-24.5-27.41-35-58.23-24.5-68.51,31.51-30.83,101.53,44.53,87.53,85.63C3573.89,4232.88,3545.88,4222.6,3517.87,4195.2Z" transform="translate(-223.29 -238.9)" style="fill:#eab30d"/><path d="M3854,4164.37c10.5-27.4,38.51-48,66.52-48,73.52,0,59.52,58.23-17.51,78.79-49,10.27-63,3.42-49-30.83Z" transform="translate(-223.29 -238.9)" style="fill:#eab30d"/></svg>