<svg xmlns="http://www.w3.org/2000/svg" viewBox="0 0 2894.82 2948.31"><defs><style>.cls-1{fill:#ba994f;}.cls-2{fill:#eab30d;}</style></defs><g id="Layer_2" data-name="Layer 2"><g id="Layer_1-2" data-name="Layer 1"><path class="cls-1" d="M644.68,2886.86c-3.87-7.75,1.29-16.79,12.92-20.67,24.54-10.33,38.75,0,25.83,19.38C673.1,2903.65,655,2903.65,644.68,2886.86Z"/><path class="cls-2" d="M590.5,2938.09c-21.49-19.79-6.32-70.51,32.88-108.86,43-42.06,172-90.31,198.52-74.23,30.35,18.56,8.85,42.07-54.37,60.62-60.69,17.32-110,50.72-110,73,0,4.95,20.23,8.66,44.26,8.66,35.4,0,44.25,4.95,44.25,24.74,0,22.27-8.85,24.74-73.34,24.74C632.23,2946.75,594.3,2943,590.5,2938.09Z"/><path class="cls-2" d="M1910.6,2920.77c-13.91-23.5-13.91-26,5.06-18.55,37.94,13.61,46.79-6.19,17.7-37.11-16.43-17.32-59.43-39.59-96.1-49.49-50.57-14.84-67-24.74-67-43.3,0-27.21,16.44-28.45,98.63-8.66,80.92,19.8,187.14,121.24,166.91,158.35-19,35.88-101.16,34.64-125.19-1.24Z"/><path class="cls-2" d="M935.7,2773.56c0-19.79,8.85-24.74,44.26-24.74,48,0,46.78,1.24,63.22-154.64,11.38-110.1,17.7-129.89,46.79-129.89,24,0,25.29,4.95,17.7,71.75-5.06,38.35-12.64,102.68-16.44,142.26l-7.59,70.52h84.72c74.61,0,83.46,2.47,83.46,24.74,0,23.51-8.85,24.74-158.06,24.74s-158.06-1.23-158.06-24.74Z"/><path class="cls-2" d="M1454.13,2767.38c0-9.9,6.32-18.56,13.91-18.56,8.85,0,11.38-19.79,5.06-63.09-8.85-60.62-7.59-63.09,20.23-58.15,21.5,2.48,31.61,12.37,34.14,34.64,7.59,64.33,16.44,86.6,34.14,86.6,29.08,0,22.76,21-8.85,29.69-53.11,13.61-98.63,8.66-98.63-11.14Z"/><path class="cls-2" d="M2545.36,2543.46c-8.85-3.71-16.43-19.79-16.43-34.64,0-26,3.79-27.21,73.33-22.26,60.7,3.71,77.14,0,101.16-22.27,39.2-35.88,36.67-91.55-5.06-120-17.7-12.37-43-32.16-56.9-43.3-12.64-12.37-27.82-22.27-31.61-22.27s-59.43-32.16-122.65-71.75c-64.49-40.82-170.7-105.15-236.46-146-65.75-39.59-147.94-91.55-183.34-113.82-34.14-22.26-116.33-66.8-182.09-99-115.06-56.91-121.38-58.15-252.89-61.86-88.51-3.71-173.23,2.48-247.83,16.08-62,11.14-150.47,24.75-196,32.17-107.48,14.84-201,29.69-313.59,48.24-83.46,14.85-93.57,13.61-116.33-6.18-21.5-18.56-30.35-19.79-58.17-7.42-31.61,13.6-32.87,18.55-27.82,81.64,6.33,75.47,44.26,139.8,104.95,174.43,55.64,33.41,204.85,27.22,480.5-19.79,282-47,426.12-58.14,494.41-37.11,26.55,8.66,113.8,52,192.19,95.25,102.43,58.15,141.62,86.6,141.62,103.92,0,33.4-26.55,29.69-110-18.56-137.83-77.93-194.73-106.39-211.17-106.39-8.85,0-26.55,23.51-37.93,53.2-25.29,66.8-82.19,121.23-169.44,163.29-67,33.41-68.28,34.64-63.22,81.65,3.79,47,2.52,49.49-27.82,45.78-25.29-2.48-32.88-11.14-35.41-44.54-3.79-40.82-6.32-40.82-56.9-38.35-105,6.19-135.3,0-135.3-24.74,0-26,43-38.35,132.77-38.35,73.34,0,163.12-28.45,216.23-68,50.57-38.35,93.57-99,93.57-134.84,0-19.8-8.86-22.27-103.69-16.09-58.17,3.71-182.08,18.56-275.65,33.4-290.83,45.78-319.91,49.49-407.16,49.49-101.16,0-141.62-13.61-197.26-65.57-58.16-54.43-77.13-94-87.24-181.85-3.8-40.82-12.65-74.23-17.71-74.23-19,0-12.64,102.68,8.85,174.43,24,76.7,105,165.77,163.12,178.15,65.75,13.6,69.55,17.31,69.55,48.24,0,28.46-2.53,29.69-53.11,17.32-159.32-34.64-263-181.85-263-376.07,0-53.2-5.06-68-36.67-96.5-22.76-21-63.22-95.25-103.69-185.56-35.4-81.65-110-251.13-164.38-374.84C105,1023.08,93.57,971.12,140.36,913c13.9-17.32,43-40.82,63.22-50.72,20.23-11.13,36.67-23.5,36.67-28.45s-25.29-17.32-56.9-26C127.71,791.74,72.07,743.49,58.17,699,26.55,595,0,477.52,0,441.64,0,341.44,64.49,287,182.08,287c55.64,0,75.87,6.18,108.75,32.16,62,52,151.73,240,151.73,320.41,0,54.43-50.58,133.6-98.63,153.4-56.9,24.74-44.25,43.29,36.67,51.95,79.66,8.66,105,17.32,158.06,55.67,39.2,28.46,67,74.23,242.78,400.82,37.93,71.75,73.34,133.61,78.39,139.79,3.8,5,36.67,3.71,70.81-2.47s110-17.32,169.44-24.74c108.75-14.85,182.08-26,326.23-50.72,68.28-12.38,84.72-11.14,111.28,6.18,34.14,21,40.46,69.28,13.91,95.26-10.12,8.66-102.43,29.69-206.11,45.77s-242.78,38.35-308.53,49.48l-120.12,19.8-3.8,43.29c-5.06,74.23-13.91,95.26-59.43,153.4-24,30.93-40.46,56.91-36.67,56.91,10.12,0,252.9-38.35,514.64-80.41,226.34-37.11,327.49-38.35,455.21-7.42,121.38,30.92,161.85,52,400.83,202.88,379.34,240,436.24,275.87,496.93,310.51,116.33,65.57,140.36,164.53,60.7,244.94-34.14,33.41-49.32,39.59-111.27,43.3-40.47,1.24-80.93,0-88.52-3.71ZM724.54,1791.31c89.77-37.11,149.2-148.45,121.39-227.63-11.38-33.4-97.37-197.93-246.57-471.33C536.13,977.3,498.2,936.48,435,919.16c-69.55-18.56-164.38-17.32-206.11,5-68.28,33.4-68.28,81.65,0,225.15,27.82,60.62,68.28,150.92,89.78,201.64,20.23,50.73,48,115,60.69,142.27s43,96.49,68.28,154.64c58.17,132.37,88.51,160.82,173.23,160.82,34.14,0,80.93-7.42,103.69-17.32Zm438.77-303.09c299.67-45.77,319.91-49.48,333.81-64.33,10.12-9.89-10.11-11.13-79.66-5-51.84,3.72-97.36,9.9-101.15,12.38-5.06,2.47-39.2,7.42-77.14,12.37-70.81,8.66-256.68,38.35-319.91,50.72-19,3.71-30.34,12.37-26.55,19.79,8.85,13.61,29.08,12.37,270.6-26ZM341.41,720c53.1-52,45.52-122.47-26.56-262.27-20.23-39.58-51.84-80.41-69.54-92.78-40.47-26-108.75-24.74-150.47,1.24-37.94,23.5-40.47,71.75-13.91,179.38C91,583.91,102.42,629.68,106.22,647s19,47,34.14,64.33c22.76,29.69,34.14,33.4,101.15,33.4,56.9,0,80.93-6.19,99.9-24.74Z"/><path class="cls-2" d="M2802.05,1892.75c-10.12-16.08-32.88-64.33-49.31-108.86-150.48-387.21-178.29-452.78-303.48-742.26-83.45-191.75-122.65-305.56-122.65-351.33,0-23.51-21.49-94-49.31-157.11C2209,368.65,2209,371.13,2241.89,336.49c70.81-76.7,84.72-102.68,84.72-157.11,0-74.23-13.91-96.49-92.3-141L2168.55,0l48,7.42c154.27,21,206.11,185.57,96.1,305.56-26.55,29.69-49.31,59.38-49.31,66.81-1.27,34.64,97.36,233.81,121.39,243.7,36.67,16.09,527.28,1242.05,509.58,1274.21-17.71,30.93-70.81,28.45-92.31-5ZM2711,1487c-80.93-194.22-185.88-450.3-235.19-569.06-96.1-233.81-94.84-230.1-106.22-219-8.85,7.42,65.76,202.88,86,223.91,5,7.42,10.11,19.79,10.11,28.45s10.12,39.59,24,69.28c31.61,71.75,120.12,279.58,235.19,559.17,107.48,258.55,122.65,290.71,129,272.16,1.27-7.43-62-170.72-142.88-365Z"/><path class="cls-2" d="M2359.49,1796.26c-25.29-34.64-62-102.68-82.19-152.16s-75.87-178.15-123.92-287c-166.91-373.6-183.35-416.9-177-450.3,6.32-28.45-89.78-292-120.13-330.3-6.32-8.66-56.9-17.32-112.54-19.8-98.62-3.71-103.68-5-144.14-49.48-43-45.77-82.19-146-82.19-210.31,0-134.84,150.47-242.47,285.76-205.36,99.9,26,183.35,158.35,165.65,263.51-3.79,23.5-21.5,75.46-40.46,113.81l-32.88,71.75,64.49,154.64c35.4,85.36,74.6,163.29,88.51,173.19s93.57,180.61,183.35,387.21c86,201.64,161.85,377.31,168.17,389.68,17.7,30.93,31.61,212.78,16.44,212.78-6.32,0-31.61-28.45-56.9-61.85Zm5.06-92.78c0-6.19-175.76-418.14-227.61-531.95-12.64-27.22-41.72-94-64.49-148.45s-44.25-89.08-46.78-77.94c-3.79,17.32,94.83,256.08,279.45,675.45,21.49,48.25,43,89.07,49.31,89.07,5.06,0,10.12-2.47,10.12-6.18Zm-521-1198.75c83.45-43.29,113.8-207.83,53.1-292-74.6-105.15-132.76-122.47-237.71-73-70.81,34.64-103.69,85.36-103.69,163.3,0,74.22,26.55,132.37,83.45,181.85,36.67,30.93,54.38,37.11,107.48,37.11,34.14,0,78.4-7.42,97.37-17.32Z"/><path class="cls-2" d="M1847.38,356.28c0-95.25-37.93-159.58-115.07-193-27.81-11.14-24-12.37,22.76-7.43,69.55,6.19,108.75,40.83,129,112.58,11.38,40.82,11.38,63.09,0,97.73C1861.29,434.22,1847.38,430.51,1847.38,356.28Z"/><path class="cls-2" d="M619.59,2934.38c0-33.4,65.75-37.11,691.66-35.87,445.09,1.23,642.35-1.24,646.14-11.14,2.53-7.42-21.5-27.21-53.11-45.77-59.43-34.64-69.54-49.48-41.73-59.38,7.59-3.71,0-7.42-19-7.42-24-1.24-35.41,4.95-35.41,18.55,0,9.9-5.06,16.09-10.11,12.38-6.33-3.72-153-7.43-326.23-8.66s-307.27-5-298.42-7.43c24-8.66,17.7-28.45-10.11-28.45-13.91,0-25.29,8.66-25.29,18.56,0,11.13-11.38,18.55-27.82,17.32-21.5-1.24-24-2.48-6.32-7.43,31.61-8.66,26.55-28.45-8.85-28.45-24,0-27.82-5-22.77-30.93,3.8-22.27,0-30.92-15.17-30.92-12.64,0-20.23-11.14-20.23-30.93,0-22.27,6.32-30.93,25.29-30.93,27.82,0,36.67-43.3,10.11-53.19-12.64-3.72-15.17-35.88-12.64-116.29,2.53-107.63,1.26-112.58-27.82-132.37-21.49-13.61-59.43-19.79-120.12-19.79-59.43,0-93.57-6.19-106.22-17.32-11.38-11.14-22.76-13.61-30.34-6.19-22.76,22.27-137.83-48.24-178.29-108.86-21.5-32.17-35.41-63.09-31.61-69.28s17.7,6.19,30.34,27.22,30.35,34.64,40.47,32.16c8.85-3.71,26.55,1.24,40.46,12.37,24,17.32,22.76,18.56-8.85,6.19-21.5-6.19-35.41-7.43-35.41,0,0,16.08,22.76,27.21,67,30.92,22.76,2.48,63.22,9.9,91,17.32s91,13.61,140.36,13.61c70.81,0,97.36,4.95,122.65,24.74,55.63,43.3,132.77,61.86,266.8,64.33,69.55,1.24,117.59,4.95,106.21,7.43-19,3.71-17.7,7.42,5.06,29.69s30.35,23.5,53.11,9.89c22.76-14.84,24-13.61,11.38,2.48-8.85,9.89-12.64,22.26-7.59,26,3.8,4.94-1.26,8.66-12.64,8.66-12.65,0-21.5,6.18-21.5,12.37,0,7.42,8.85,12.37,19,12.37s19,1.23,20.23,3.71c0,1.24,10.12,66.8,22.76,144.74l21.5,142.26,164.38,7.43c163.11,7.42,213.69,16.08,199.78,37.11-3.79,6.18,1.27,7.42,11.38,3.71s22.76-1.24,27.82,6.19c3.79,7.42-1.26,13.6-11.38,13.6-11.38,0-20.23,4.95-20.23,9.9,0,21,16.44,26,40.46,11.13,21.5-12.37,29.08-9.89,60.7,27.22,29.08,33.4,34.14,47,24,65.57-11.38,21-44.26,22.26-713.16,22.26-442.56,0-701.77-4.94-701.77-12.37Zm1401-33.4c-20.23-4.95-27.82-18.56-25.29-42.06,1.27-5-10.11-11.13-24-14.85-20.23-4.94-22.76-3.71-10.12,11.14,7.59,8.66,11.38,26,6.32,35.87-5,14.85,2.53,18.56,34.15,17.32,22.76-1.23,30.34-3.71,19-7.42ZM1482,2706.76c2.53-23.51,0-39.59-5.06-37.12-5.05,3.72-10.11,2.48-10.11-3.71,0-4.94-6.33-45.77-13.91-90.3s-15.18-96.5-17.7-117.53c-1.27-19.79-3.8-40.82-5.06-45.77-1.27-6.19-12.65-9.9-26.56-9.9s-25.29-4.95-25.29-9.89c0-6.19-32.87-6.19-72.07,0-40.46,6.18-97.36,8.66-126.45,3.71l-51.84-7.43-7.59,47c-11.38,61.86-16.43,101.45-26.55,217.73l-8.85,95.26h392l5.06-42.06Z"/><path class="cls-2" d="M784,2792.12c-8.85-9.9-25.29-18.56-36.67-19.8-63.23-3.71,60.69-21,159.32-22.26,96.1-1.24,115.07,2.47,110,16.08-3.79,9.89,2.53,19.79,16.44,22.27,12.64,3.71-30.35,6.18-96.1,7.42-64.49,1.24-122.66,5-127.71,8.66S792.82,2802,784,2792.12Z"/><path class="cls-2" d="M2510,2528.62c-27.82-11.14-101.16-48.25-164.38-81.65-62-33.4-145.41-76.7-183.35-97.73-159.32-84.12-209.9-112.58-240.25-131.13-17.7-12.37-58.16-34.64-91-50.72-55.63-26-78.39-49.49-48-49.49,7.59,0,12.65,6.19,12.65,13.61,0,6.19,5.06,8.66,12.64,4.95,6.32-3.71,22.76-1.24,35.41,4.95,15.17,7.42,27.82,8.66,35.4,1.23s29.08-1.23,55.64,16.09c24,16.08,175.76,96.49,336.35,179.37,246.57,127.42,302.2,150.93,349,150.93,37.93,0,64.48-7.42,82.19-23.51,15.17-13.6,29.08-21,32.87-17.31,10.12,8.66,0-68-10.11-82.89-6.32-11.13-96.1-71.75-169.44-117.52-11.38-6.19-41.73-26-68.28-42.06-37.94-22.27-44.26-32.17-32.88-45.78,8.85-11.13,10.12-17.32,1.27-17.32-7.59,0-15.18,6.19-17.71,13.61-6.32,17.32-98.62-34.64-98.62-54.43,0-9.9,5-8.66,11.38,2.47,6.32,9.9,13.91,11.14,19,3.72,3.8-7.43-5-22.27-20.23-32.17-39.2-27.21-51.84-24.74-35.4,6.19,12.64,22.26,12.64,23.5-8.85,12.37-104.95-59.38-198.52-122.47-201-134.85-1.27-8.66,0-9.89,2.53-3.71,3.79,7.43,13.9,9.9,21.49,6.19,8.85-2.48,32.88,9.9,54.37,29.69,21.5,18.56,45.52,32.16,53.11,29.69,8.85-2.48,15.17,3.71,15.17,13.61,0,12.37,11.38,16.08,44.26,12.37,36.67-3.71,62,7.42,145.41,60.62,56.91,35.87,96.1,66.8,88.52,69.27-6.33,2.48-12.65,12.37-12.65,22.27,0,14.85,5.06,14.85,25.29,2.47s30.35-11.13,59.43,9.9c20.23,14.85,48.05,29.69,64.49,34.64,15.17,5,27.82,14.84,27.82,21s7.58,11.13,17.7,11.13c8.85,0,31.61,21,49.31,47,51.85,73,29.09,169.49-46.78,205.36-37.94,17.32-39.2,17.32-48.05-8.66-3.79-14.84-7.59-21-8.85-14.84-1.27,8.66-20.23,11.13-48,8.66-37.94-4.95-44.26-2.48-37.94,14.84,10.12,24.74,3.8,23.51-60.69-2.47Z"/><path class="cls-2" d="M1509.77,2360.37c-3.79-11.13-20.23-19.79-35.41-21-16.43,0-5-8.66,30.35-19.79,31.61-11.14,59.43-23.51,63.22-27.22s16.44-14.84,29.09-24.74c19-14.85,21.49-14.85,13.91,3.71-5.06,13.61-1.27,19.79,12.64,19.79,11.38,0,20.23,4.95,20.23,12.38,0,18.55-44.25,35.87-73.34,28.45-20.23-5-27.81-1.24-27.81,12.37,0,27.22-24,38.35-32.88,16.08Z"/><path class="cls-2" d="M1645.07,2280c-19-12.37-12.65-58.14,7.58-54.43,7.59,1.24,17.71-5,21.5-16.08,3.79-9.9,1.26-14.85-5.06-11.14-7.59,3.71-8.85-1.23-5.06-11.13,3.8-11.13,12.65-16.08,19-12.37,7.59,3.71,10.12-6.19,7.59-22.27-2.53-14.84-2.53-21,0-12.37,3.79,7.42,15.17,14.84,26.55,14.84,19,0,19-2.47,2.53-12.37s-15.17-12.37,3.79-12.37c27.82,0,26.56,9.9-2.53,76.7-26.55,63.09-51.84,86.6-75.86,73Z"/><path class="cls-2" d="M790.29,2194.6c-35.41-7.42-54.37-26-35.41-37.11,11.38-7.42,8.86-13.61-7.58-23.51-21.5-12.37-22.76-11.13-16.44,12.37,5.06,24.75,2.53,23.51-34.14-9.89-48.05-43.3-80.93-106.39-74.6-138.56,2.53-13.6,11.38,0,22.76,34.64,8.85,30.93,24,56.91,34.14,56.91,11.38,0,12.64-4.95,2.53-16.08-7.59-8.66-10.12-22.27-5.06-29.69s20.23,3.71,36.67,27.21c43,63.09,86,77.94,220,77.94,63.23-1.24,116.33,2.47,116.33,7.42,0,9.9-36.66,48.25-45.52,48.25-3.79,0-15.17-8.66-25.29-18.56-25.28-23.5-153-26-159.32-2.47-2.53,8.66-15.17,13.61-29.08,11.13Z"/><path class="cls-2" d="M1138,2168.62c0-6.18-15.18-16.08-34.14-23.5-32.88-9.9-30.35-11.14,32.87-19.8,36.67-4.94,70.81-6.18,74.61-1.23,3.79,3.71-2.53,6.18-12.65,6.18-11.38,0-22.76,11.14-26.55,24.74C1165.84,2179.76,1138,2190.89,1138,2168.62Z"/><path class="cls-2" d="M610.74,2137.7c3.79-9.9,1.26-19.8-7.59-23.51-8.85-2.47-10.12-6.18,0-12.37,6.32-3.71,19,6.19,26.55,22.27,12.65,26,11.38,30.92-5.05,30.92-12.65,0-17.71-7.42-13.91-17.31Z"/><path class="cls-2" d="M541.19,2065.94c-6.32-14.84-1.26-23.5,16.44-28.45,13.91-5,29.08-5,32.87-1.24,5.06,3.71-1.26,7.43-12.64,7.43-10.12,0-21.5,9.89-24,22.26-3.8,19.8-5.06,19.8-12.65,0Z"/><path class="cls-2" d="M2263.39,2018.93c0-6.18-7.59-12.37-16.44-12.37s-22.76-11.13-31.61-24.74c-13.91-22.27-8.85-21,35.4,7.42,55.64,35.88,59.43,42.07,31.62,42.07C2272.24,2031.31,2263.39,2026.36,2263.39,2018.93Z"/><path class="cls-2" d="M632.23,1946c0-6.19,7.59-14.85,16.44-17.32,11.38-5,10.12-9.9-3.79-19.8-16.44-11.13-16.44-13.6,3.79-13.6,15.17,0,21.5,9.89,21.5,30.92,0,19.8-7.59,30.93-19,30.93C641.08,1957.08,632.23,1952.13,632.23,1946Z"/><path class="cls-2" d="M1999.12,1908.83c-30.35-19.79-49.32-38.35-41.73-43.29,6.32-3.72,16.44,1.23,20.23,12.37,3.79,9.89,12.65,14.84,20.23,11.13,6.32-3.71,12.65-1.24,12.65,6.19s6.32,9.89,12.64,6.18c7.59-3.71,12.65-1.24,12.65,4.95,0,7.42,6.32,12.37,13.9,11.13,7.59-2.47,17.71,3.71,20.24,12.37,8.85,22.27-8.85,17.32-70.81-21Z"/><path class="cls-2" d="M872.48,1870.48c0-6.18,8.85-12.37,19-12.37s19,6.19,19,12.37c0,7.43-8.85,12.37-19,12.37S872.48,1877.91,872.48,1870.48Z"/><path class="cls-2" d="M701.78,1847c-3.8-6.19-1.27-14.85,6.32-19.79,15.17-8.66,37.93,2.47,37.93,19.79C746,1861.82,711.89,1861.82,701.78,1847Z"/><path class="cls-2" d="M983.75,1835.84c-3.79-13.6,0-23.5,10.12-23.5,8.85,0,13.91,5,10.11,11.13-3.79,5,0,9.9,6.33,9.9,7.58,0,13.91,6.19,13.91,12.37,0,22.27-35.41,13.61-40.47-9.9Z"/><path class="cls-2" d="M1860,1834.61c-8.86-6.19-13.91-18.56-11.38-27.22,3.79-12.37,10.11-8.66,21.49,11.14,16.44,29.69,15.17,32.16-10.11,16.08Z"/><path class="cls-2" d="M1150.66,1814.81c0-11.13-12.64-18.55-34.14-19.79-22.76-1.24-26.55-3.71-12.64-7.42,26.55-7.42,110,18.55,110,34.64,0,6.18-13.9,11.13-31.61,11.13-20.23,0-31.61-7.42-31.61-18.56Z"/><path class="cls-2" d="M1293.55,1795c3.79-13.61,0-23.5-7.59-23.5s-8.85-3.72-5.06-8.66c10.12-8.66,72.08,19.79,72.08,34.63,0,3.72-15.18,11.14-32.88,14.85-26.55,5-31.61,1.24-26.55-17.32Z"/><path class="cls-2" d="M1652.65,1787.6c-60.69-3.71-84.72-9.9-80.92-19.8,2.53-8.65,12.64-14.84,22.76-16.08,120.12-8.66,121.39-8.66,43-17.32l-75.87-8.66h69.55c72.07-1.23,174.49,16.09,116.33,19.8-25.29,1.23-26.56,5-15.18,26,7.59,13.6,11.38,23.5,10.12,22.26-2.53-1.23-43-3.71-89.78-6.18Z"/><path class="cls-2" d="M1479.42,1765.33c0-9.9,11.38-18.56,25.29-18.56s25.29,8.66,25.29,18.56-11.38,18.56-25.29,18.56S1479.42,1775.23,1479.42,1765.33Z"/><path class="cls-2" d="M923.06,1561.21c0-6.19,8.85-12.37,19-12.37s19,6.18,19,12.37c0,7.42-8.85,12.37-19,12.37S923.06,1568.63,923.06,1561.21Z"/><path class="cls-2" d="M1047,1552.55c7.58-2.47,15.17-13.61,15.17-23.5,0-19.8,45.52-23.51,56.9-3.72,11.38,17.32,8.85,18.56-44.26,27.22C1050.77,1556.26,1038.12,1556.26,1047,1552.55Z"/><path class="cls-2" d="M1390.91,1487c0-6.18,11.38-12.37,25.29-12.37s25.29,6.19,25.29,12.37c0,7.43-11.38,12.38-25.29,12.38S1390.91,1494.41,1390.91,1487Z"/><path class="cls-2" d="M1011.57,1462.24c0-6.18,7.59-12.37,16.44-12.37,10.11,0,8.85-4.95-3.79-12.37-16.44-9.9-15.18-12.37,3.79-12.37,12.64,0,21.49,9.9,21.49,24.74,0,13.61-8.85,24.74-19,24.74S1011.57,1469.67,1011.57,1462.24Z"/><path class="cls-2" d="M1189.86,1428.84c-8.85-9.9-12.64-21-8.85-24.74,11.38-11.13,36.67,16.08,31.61,30.93C1210.09,1442.45,1200,1438.74,1189.86,1428.84Z"/><path class="cls-2" d="M1311.25,1417.71c3.79-9.9,13.91-17.32,24-17.32,26.56,0,21.5,21-6.32,28.45-17.7,3.71-22.76,1.24-17.7-11.13Z"/></g></g></svg>